<svg xmlns="http://www.w3.org/2000/svg" viewBox="0 0 276.14 36.66"><defs><style>.cls-1{fill:#b10f2e;}</style></defs><title>Asset 5</title><g id="Layer_2" data-name="Layer 2"><g id="Layer_1-2" data-name="Layer 1"><g id="Group_20" data-name="Group 20"><g id="Group_18" data-name="Group 18"><rect id="Rectangle_16" data-name="Rectangle 16" class="cls-1" x="7.8" y="7.8" width="260.53" height="21.06" rx="10.53"/></g><g id="Group_19" data-name="Group 19"><path id="Path_14" data-name="Path 14" d="M258.64,36.66H17.5A17.52,17.52,0,0,1,0,19.16V17.5A17.52,17.52,0,0,1,17.5,0H258.64a17.52,17.52,0,0,1,17.5,17.5v1.67A17.52,17.52,0,0,1,258.64,36.66ZM17.5,15.6a1.9,1.9,0,0,0-1.9,1.9v1.67a1.9,1.9,0,0,0,1.9,1.9H258.64a1.9,1.9,0,0,0,1.9-1.9V17.5a1.9,1.9,0,0,0-1.9-1.9Z"/></g></g></g></g></svg>