<svg xmlns="http://www.w3.org/2000/svg" viewBox="0 0 303.43 158.14"><defs><style>.cls-1{isolation:isolate;}.cls-2{fill:#2481c6;}.cls-3{fill:#ffe400;}.cls-4{fill:#ffb901;}</style></defs><title>Asset 12</title><g id="Layer_2" data-name="Layer 2"><g id="Layer_1-2" data-name="Layer 1"><g class="cls-1"><ellipse class="cls-2" cx="153.47" cy="135.64" rx="148.5" ry="22.5"/></g><g id="Group_11" data-name="Group 11"><g id="Group_10" data-name="Group 10"><g id="Group_9" data-name="Group 9"><path id="Path_11" data-name="Path 11" class="cls-3" d="M295.25,6.63V34.74a24.94,24.94,0,0,1-24.93,24.93h-238A24.93,24.93,0,0,1,7.41,34.74V6.63Z"/></g></g></g><g id="Group_36" data-name="Group 36"><g id="Group_35" data-name="Group 35"><path id="Path_20" data-name="Path 20" class="cls-4" d="M273.68,47.2a11.94,11.94,0,0,1-3,.38H242.34a1.44,1.44,0,0,1-1-2.51,11.65,11.65,0,0,0,4-8.77V21.06h35.6a1.45,1.45,0,0,1,1.45,1.45v13.4A11.68,11.68,0,0,1,273.68,47.2Z"/></g></g><g id="Group_40" data-name="Group 40"><g id="Group_39" data-name="Group 39"><g id="Group_37" data-name="Group 37"><path id="Path_21" data-name="Path 21" d="M270.7,68.64H164.13a7.8,7.8,0,0,1,0-15.6H270.7a17.14,17.14,0,0,0,17.13-17.13V15.6H15.6V35.91A17.14,17.14,0,0,0,32.73,53H84.24a7.8,7.8,0,0,1,0,15.6H32.73A32.76,32.76,0,0,1,0,35.91V0H303.43V35.91A32.76,32.76,0,0,1,270.7,68.64Z"/></g><g id="Group_38" data-name="Group 38"><path id="Path_22" data-name="Path 22" d="M145.09,68.64H103.87a7.8,7.8,0,0,1,0-15.6h41.25a7.8,7.8,0,1,1,0,15.6Z"/></g></g></g><g id="Group_63" data-name="Group 63"><g id="Group_62" data-name="Group 62"><circle id="Ellipse_11" data-name="Ellipse 11" class="cls-4" cx="208.66" cy="27.69" r="2.34"/></g></g><g id="Group_65" data-name="Group 65"><g id="Group_64" data-name="Group 64"><circle id="Ellipse_12" data-name="Ellipse 12" class="cls-4" cx="202.03" cy="42.12" r="4.29"/></g></g><g id="Group_67" data-name="Group 67"><g id="Group_66" data-name="Group 66"><circle id="Ellipse_13" data-name="Ellipse 13" class="cls-4" cx="228.94" cy="28.47" r="7.8"/></g></g></g></g></svg>