<svg xmlns="http://www.w3.org/2000/svg" viewBox="0 0 304.12 140.41"><defs><style>.cls-1{fill:#ffe400;}.cls-2{fill:#ffb901;}.cls-3{fill:#fff;}</style></defs><title>Asset 2</title><g id="Layer_2" data-name="Layer 2"><g id="Layer_1-2" data-name="Layer 1"><g id="Group_8" data-name="Group 8"><g id="Group_7" data-name="Group 7"><g id="Group_6" data-name="Group 6"><path id="Path_10" data-name="Path 10" class="cls-1" d="M295.23,112.48a15.19,15.19,0,0,1-9.93,19,15.4,15.4,0,0,1-4.57.7H22.6A15.19,15.19,0,0,1,7.41,117a15.38,15.38,0,0,1,.7-4.56,150.61,150.61,0,0,1,287.12,0Z"/></g></g></g><g id="Group_25" data-name="Group 25"><g id="Group_24" data-name="Group 24"><circle id="Ellipse_3" data-name="Ellipse 3" cx="103.31" cy="15.6" r="8.19"/></g></g><g id="Group_30" data-name="Group 30"><g id="Group_29" data-name="Group 29"><g id="Group_28" data-name="Group 28"><path id="Path_17" data-name="Path 17" d="M281.12,140.41H23A23,23,0,0,1,1.06,110.52,159.11,159.11,0,0,1,83.49,15.58a7.8,7.8,0,1,1,6.76,14.05h0a143.44,143.44,0,0,0-74.31,85.6,7.37,7.37,0,0,0,4.84,9.24,7.55,7.55,0,0,0,2.21.34H281.12a7.38,7.38,0,0,0,7.39-7.37,7.24,7.24,0,0,0-.33-2.22,144,144,0,0,0-51-71.47A141.52,141.52,0,0,0,152.06,15.6a143.7,143.7,0,0,0-29.33,3,7.8,7.8,0,1,1-3.2-15.27h0A158.55,158.55,0,0,1,303.05,110.52a23,23,0,0,1-21.93,29.89Z"/></g></g></g><g id="Group_32" data-name="Group 32"><g id="Group_31" data-name="Group 31"><path id="Path_18" data-name="Path 18" class="cls-2" d="M281.12,119.35a1.86,1.86,0,0,0,1.57-.8,1.81,1.81,0,0,0,.28-1.68,138.59,138.59,0,0,0-49.05-68.75,136.1,136.1,0,0,0-81.86-27.06q-3.69,0-7.33.19a2.29,2.29,0,0,0-.47,4.5A136,136,0,0,1,191.8,48.52a138.52,138.52,0,0,1,49,68.74v0A2.34,2.34,0,0,0,243,119Z"/></g></g><g id="Group_45" data-name="Group 45"><g id="Group_42" data-name="Group 42"><g id="Group_41" data-name="Group 41"><path id="Path_23" data-name="Path 23" class="cls-3" d="M51.43,80.73A4.67,4.67,0,0,1,46.76,76a4.77,4.77,0,0,1,.37-1.82C54.08,57.89,70.7,50.46,73,50.32a4.68,4.68,0,0,1,1.51,9.19c-2.79,1.06-14,7.23-18.76,18.38A4.69,4.69,0,0,1,51.43,80.73Z"/></g></g><g id="Group_44" data-name="Group 44"><g id="Group_43" data-name="Group 43"><path id="Path_24" data-name="Path 24" class="cls-3" d="M82.91,54.15a4.68,4.68,0,0,1-3.5-7.79l.52-.58a4.68,4.68,0,0,1,7,6.22l-.52.58A4.68,4.68,0,0,1,82.91,54.15Z"/></g></g></g><g id="Group_47" data-name="Group 47"><g id="Group_46" data-name="Group 46"><circle id="Ellipse_4" data-name="Ellipse 4" class="cls-2" cx="106.04" cy="100.23" r="8.58"/></g></g><g id="Group_49" data-name="Group 49"><g id="Group_48" data-name="Group 48"><circle id="Ellipse_5" data-name="Ellipse 5" cx="117.74" cy="69.81" r="8.58"/></g></g><g id="Group_51" data-name="Group 51"><g id="Group_50" data-name="Group 50"><circle id="Ellipse_6" data-name="Ellipse 6" class="cls-2" cx="174.68" cy="100.23" r="8.58"/></g></g><g id="Group_53" data-name="Group 53"><g id="Group_52" data-name="Group 52"><circle id="Ellipse_7" data-name="Ellipse 7" cx="161.42" cy="69.81" r="8.58"/></g></g><g id="Group_55" data-name="Group 55"><g id="Group_54" data-name="Group 54"><path id="Path_25" data-name="Path 25" d="M140.75,97.74a15.91,15.91,0,0,1-8.51-2.29,9,9,0,0,1-4.36-7.7,2.34,2.34,0,0,1,4.68,0c0,3.65,4.24,5.3,8.19,5.3s8.19-1.66,8.19-5.3a2.34,2.34,0,0,1,4.68,0h0C153.62,94.31,147.14,97.74,140.75,97.74Z"/></g></g></g></g></svg>