<svg xmlns="http://www.w3.org/2000/svg" viewBox="0 0 322.93 42.12"><defs><style>.cls-1{fill:#ffe400;}</style></defs><title>Asset 6</title><g id="Layer_2" data-name="Layer 2"><g id="Layer_1-2" data-name="Layer 1"><g id="Group_17" data-name="Group 17"><g id="Group_15" data-name="Group 15"><path id="Rectangle_15" data-name="Rectangle 15" class="cls-1" d="M21.06,7.8H301.87a13.26,13.26,0,0,1,13.26,13.26h0a13.26,13.26,0,0,1-13.26,13.26H21.06A13.26,13.26,0,0,1,7.8,21.06h0A13.26,13.26,0,0,1,21.06,7.8Z"/></g><g id="Group_16" data-name="Group 16"><path id="Path_13" data-name="Path 13" d="M303.32,42.12H19.62A19.64,19.64,0,0,1,0,22.5V19.61A19.64,19.64,0,0,1,19.62,0h283.7a19.63,19.63,0,0,1,19.61,19.62V22.5A19.63,19.63,0,0,1,303.32,42.12ZM19.62,15.6a4,4,0,0,0-4,4V22.5a4,4,0,0,0,4,4h283.7a4,4,0,0,0,4-4V19.61a4,4,0,0,0-4-4Z"/></g></g></g></g></svg>