<svg xmlns="http://www.w3.org/2000/svg" width="150.398" height="73.658" viewBox="0 0 150.398 73.658">
  <g id="Group_3" data-name="Group 3" transform="translate(1196 508)">
    <g id="Group_2" data-name="Group 2" transform="translate(-1196 -508)">
      <path id="Path_5" data-name="Path 5" d="M75.364,187.048A14.07,14.07,0,0,1,75,183.82a14.292,14.292,0,0,1,.365-3.28,8.477,8.477,0,0,1,1.145-2.759,5.848,5.848,0,0,1,1.978-1.9,6.026,6.026,0,0,1,5.649,0,5.967,5.967,0,0,1,1.952,1.9,8.6,8.6,0,0,1,1.145,2.759,14.6,14.6,0,0,1,.364,3.28,14.374,14.374,0,0,1-.364,3.228,8.645,8.645,0,0,1-1.145,2.759,6.018,6.018,0,0,1-1.952,1.9,6.026,6.026,0,0,1-5.649,0,5.691,5.691,0,0,1-1.093-.828,6.152,6.152,0,0,1-.885-1.072A8.525,8.525,0,0,1,75.364,187.048Z" transform="translate(-60.578 -141.495)" fill="#0c0f0a"/>
      <path id="Path_6" data-name="Path 6" d="M150.4,153.684v44.107H0V153.684H7.289v26.552h7.028V176.8h.1a6.749,6.749,0,0,0,3.54,3.175,14.2,14.2,0,0,0,5.311.938,10.253,10.253,0,0,0,7.574-3.384,13.081,13.081,0,0,0,2.577-4.4,21.032,21.032,0,0,0,0-12.754,13.005,13.005,0,0,0-2.577-4.4,10.5,10.5,0,0,0-3-2.292h9.168v26.552h7.391V168.105a14.809,14.809,0,0,1,.365-3.384A7.333,7.333,0,0,1,46,161.989a5.932,5.932,0,0,1,2.265-1.848,7.837,7.837,0,0,1,3.436-.677,13.337,13.337,0,0,1,1.406.077c.485.052.9.11,1.25.183v-6.04h3.123v26.552h7.393V153.684h9.5a10.623,10.623,0,0,0-3.619,2.942,13.01,13.01,0,0,0-2.211,4.269,16.7,16.7,0,0,0-.756,5.024,20.3,20.3,0,0,0,.652,5.232,12.146,12.146,0,0,0,2.055,4.321,9.931,9.931,0,0,0,3.592,2.917,11.809,11.809,0,0,0,5.207,1.067,11.082,11.082,0,0,0,3.534-.573,11.672,11.672,0,0,0,1.125-.442,7.361,7.361,0,0,0,3.411-3.15h.1v3.54a7.383,7.383,0,0,1-1.38,4.738,4.77,4.77,0,0,1-3.2,1.775c-.2.031-.406.058-.619.073-.116.01-.229.015-.35.021-.092,0-.186,0-.281,0h-.223c-.064,0-.131,0-.192,0a7.2,7.2,0,0,1-3.177-.8,4.221,4.221,0,0,1-2.03-2.89H68.667a7.755,7.755,0,0,0,1.277,3.93,9.2,9.2,0,0,0,2.811,2.682,12.86,12.86,0,0,0,3.747,1.534,17.238,17.238,0,0,0,4.036.494c.192,0,.385,0,.571,0,.069,0,.136,0,.2-.006h.079c.073-.006.14-.006.207-.01h.1c.131-.006.256-.012.381-.015H82.1c.162-.012.323-.017.485-.033.244-.015.483-.037.717-.062a14.678,14.678,0,0,0,4.628-1.119,11.373,11.373,0,0,0,4.217-3.046,9.2,9.2,0,0,0,1.9-3.878,18.388,18.388,0,0,0,.442-3.7V153.684h3.852v26.552h7.393v-14.11q0-4.116,1.354-5.909a5.121,5.121,0,0,1,4.372-1.8,4.036,4.036,0,0,1,3.7,1.64,9.451,9.451,0,0,1,1.04,4.972v15.2h7.393V163.681a21.987,21.987,0,0,0-.442-4.555,8.637,8.637,0,0,0-1.536-3.488,6.828,6.828,0,0,0-2.39-1.954h6.445v4.582h4.478v15.879a6.919,6.919,0,0,0,.677,3.28,4.829,4.829,0,0,0,1.848,1.925,7.748,7.748,0,0,0,2.708.911,21.385,21.385,0,0,0,3.253.235c.735,0,1.479-.021,2.238-.052a18.026,18.026,0,0,0,2.082-.208v-5.728a10.571,10.571,0,0,1-1.092.158c-.381.031-.781.052-1.192.052a2.5,2.5,0,0,1-3.125-3.125V158.266h5.409v-4.582Z" transform="translate(0 -124.134)" fill="#0c0f0a"/>
      <path id="Path_7" data-name="Path 7" d="M391.255,185.72a14.629,14.629,0,0,1-.286-2.889,11.878,11.878,0,0,1,.338-2.889,7.025,7.025,0,0,1,1.093-2.447,5.553,5.553,0,0,1,1.874-1.692,5.416,5.416,0,0,1,2.681-.625,6.071,6.071,0,0,1,3.02.677,5.392,5.392,0,0,1,1.926,1.822,7.878,7.878,0,0,1,1.041,2.629,15.242,15.242,0,0,1,.312,3.15,9.837,9.837,0,0,1-.391,2.785,7.409,7.409,0,0,1-1.171,2.369,5.807,5.807,0,0,1-1.978,1.666,5.89,5.89,0,0,1-2.759.625,5.243,5.243,0,0,1-2.863-.729,5.827,5.827,0,0,1-1.848-1.874A7.765,7.765,0,0,1,391.255,185.72Z" transform="translate(-315.793 -141.495)" fill="#0c0f0a"/>
      <rect id="Rectangle_12" data-name="Rectangle 12" width="19.995" height="22.181" transform="translate(54.358)" fill="#0c0f0a"/>
    </g>
  </g>
</svg>
