<svg xmlns="http://www.w3.org/2000/svg" viewBox="0 0 294.07 63.96"><defs><style>.cls-1{fill:#a6804b;}.cls-2{fill:#795636;}</style></defs><title>Asset 11</title><g id="Layer_2" data-name="Layer 2"><g id="Layer_1-2" data-name="Layer 1"><g id="Group_14" data-name="Group 14"><g id="Group_12" data-name="Group 12"><path id="Rectangle_14" data-name="Rectangle 14" class="cls-1" d="M32,7.8H262.09A24.18,24.18,0,0,1,286.27,32h0a24.17,24.17,0,0,1-24.18,24.18H32A24.18,24.18,0,0,1,7.8,32h0A24.19,24.19,0,0,1,32,7.8Z"/></g><g id="Group_13" data-name="Group 13"><path id="Path_12" data-name="Path 12" d="M265.9,64H28.17A28.2,28.2,0,0,1,0,35.79V28.17A28.21,28.21,0,0,1,28.17,0H265.9a28.21,28.21,0,0,1,28.17,28.17v7.62A28.19,28.19,0,0,1,265.9,64ZM28.17,15.6A12.59,12.59,0,0,0,15.6,28.17v7.62A12.59,12.59,0,0,0,28.17,48.36H265.9a12.59,12.59,0,0,0,12.57-12.57V28.17A12.59,12.59,0,0,0,265.9,15.6Z"/></g></g><g id="Group_34" data-name="Group 34"><g id="Group_33" data-name="Group 33"><path id="Path_19" data-name="Path 19" class="cls-2" d="M266,45.24a32.71,32.71,0,0,1-5,.39H236.14a3.06,3.06,0,0,1-2.59-4.72,11.62,11.62,0,0,0,2-6.56V19.11h31.68a5.37,5.37,0,0,1,5.37,5.37h0V34C273,41.34,271,43.92,266,45.24Z"/></g></g><g id="Group_57" data-name="Group 57"><g id="Group_56" data-name="Group 56"><circle id="Ellipse_8" data-name="Ellipse 8" class="cls-2" cx="202.81" cy="25.74" r="2.34"/></g></g><g id="Group_59" data-name="Group 59"><g id="Group_58" data-name="Group 58"><circle id="Ellipse_9" data-name="Ellipse 9" class="cls-2" cx="196.18" cy="40.17" r="4.29"/></g></g><g id="Group_61" data-name="Group 61"><g id="Group_60" data-name="Group 60"><circle id="Ellipse_10" data-name="Ellipse 10" class="cls-2" cx="216.07" cy="36.66" r="7.8"/></g></g></g></g></svg>