<svg xmlns="http://www.w3.org/2000/svg" viewBox="0 0 304.21 36.66"><defs><style>.cls-1{fill:#16c172;}</style></defs><title>Asset 10</title><g id="Layer_2" data-name="Layer 2"><g id="Layer_1-2" data-name="Layer 1"><g id="Group_23" data-name="Group 23"><g id="Group_21" data-name="Group 21"><rect id="Rectangle_17" data-name="Rectangle 17" class="cls-1" x="7.8" y="7.8" width="288.61" height="21.06" rx="10.53"/></g><g id="Group_22" data-name="Group 22"><path id="Path_15" data-name="Path 15" d="M286.21,36.66H18a18,18,0,0,1-18-18V18A18,18,0,0,1,18,0h268.2a18,18,0,0,1,18,18v.65A18,18,0,0,1,286.21,36.66ZM18,15.6a2.4,2.4,0,0,0-2.4,2.4v.65a2.4,2.4,0,0,0,2.4,2.4h268.2a2.41,2.41,0,0,0,2.4-2.4V18a2.41,2.41,0,0,0-2.4-2.4Z"/></g></g></g></g></svg>